<svg width="80" height="80" viewBox="0 0 80 80" fill="none" xmlns="http://www.w3.org/2000/svg">
<g clip-path="url(#clip0_43_46)">
<path d="M78.6667 8C79.403 8 80 7.403 80 6.66667V1.33333C80 0.597005 79.403 0 78.6667 0H1.33333C0.597005 0 0 0.597005 0 1.33333V6.66667C0 7.403 0.597005 8 1.33333 8H4V53.3333H1.33333C0.597005 53.3333 0 53.9303 0 54.6667V60C0 60.7363 0.597005 61.3333 1.33333 61.3333H34.4362L20.3216 77.8001C19.9831 78.1953 19.9056 78.7513 20.123 79.224C20.3405 79.6966 20.8132 79.9994 21.3333 80H26.6667C27.056 80 27.4251 79.8301 27.6784 79.5345L36 69.8307V78.6667C36 79.403 36.597 80 37.3333 80H42.6667C43.403 80 44 79.403 44 78.6667V69.8307L52.3216 79.5345C52.5749 79.8301 52.944 80 53.3333 80H58.6667C59.1869 79.9994 59.6595 79.6966 59.877 79.224C60.0944 78.7513 60.0169 78.1953 59.6784 77.8001L45.5638 61.3333H78.6667C79.403 61.3333 80 60.7363 80 60V54.6667C80 53.9303 79.403 53.3333 78.6667 53.3333H76V8H78.6667ZM2.66667 2.66667H77.3333V5.33333H2.66667V2.66667ZM26.0534 77.3333H24.2318L36 63.6003V65.7331L26.0534 77.3333ZM41.3333 77.3333H38.6667V61.3333H41.3333V77.3333ZM53.9466 77.3333L44 65.7331V63.6003L55.7682 77.3333H53.9466ZM77.3333 58.6667H2.66667V56H77.3333V58.6667ZM73.3333 53.3333H6.66667V8H73.3333V53.3333Z" fill="#EB3F57"/>
<path d="M20 42.6667C19.9896 45.4408 22.1075 47.7598 24.8711 48C27.6348 48.2402 30.1218 46.3216 30.5899 43.5872C31.0586 40.8529 29.3529 38.2162 26.6667 37.5228V37.3333C26.6713 33.653 29.653 30.6712 33.3334 30.6667H46.6667C51.8184 30.6602 55.9935 26.485 56 21.3333V21.1439C58.6003 20.4727 60.2963 17.972 59.9577 15.3079C59.6192 12.6439 57.3523 10.6465 54.6667 10.6465C51.9812 10.6465 49.7142 12.6439 49.3757 15.3079C49.0371 17.972 50.7331 20.4727 53.3334 21.1439V21.3333C53.3288 25.0137 50.347 27.9954 46.6667 28H33.3334C28.1817 28.0065 24.0065 32.1816 24 37.3333V37.5228C21.6524 38.1289 20.0092 40.2422 20 42.6667ZM52 16C52 14.5273 53.194 13.3333 54.6667 13.3333C56.1394 13.3333 57.3334 14.5273 57.3334 16C57.3334 17.4727 56.1394 18.6667 54.6667 18.6667C53.194 18.6667 52 17.4727 52 16ZM25.3334 40C26.806 40 28 41.194 28 42.6667C28 44.1393 26.806 45.3333 25.3334 45.3333C23.8607 45.3333 22.6667 44.1393 22.6667 42.6667C22.6667 41.194 23.8607 40 25.3334 40Z" fill="#EB3F57"/>
<path d="M47.2187 36.2292L45.3333 38.1147L43.4479 36.2292L41.5625 38.1147L43.4479 40.0001L41.5625 41.8855L43.4479 43.7709L45.3333 41.8855L47.2187 43.7709L49.1042 41.8855L47.2187 40.0001L49.1042 38.1147L47.2187 36.2292Z" fill="#EB3F57"/>
<path d="M58.8958 28.7812L60.7812 30.6666L58.8958 32.552L60.7812 34.4374L62.6666 32.552L64.5521 34.4374L66.4375 32.552L64.5521 30.6666L66.4375 28.7812L64.5521 26.8958L62.6666 28.7812L60.7812 26.8958L58.8958 28.7812Z" fill="#EB3F57"/>
<path d="M19.2187 22.8958L17.3333 24.7812L15.4479 22.8958L13.5625 24.7812L15.4479 26.6666L13.5625 28.552L15.4479 30.4374L17.3333 28.552L19.2187 30.4374L21.1042 28.552L19.2187 26.6666L21.1042 24.7812L19.2187 22.8958Z" fill="#EB3F57"/>
<path d="M31.4479 22.4374L33.3333 20.552L35.2187 22.4374L37.1042 20.552L35.2187 18.6666L37.1042 16.7812L35.2187 14.8958L33.3333 16.7812L31.4479 14.8958L29.5625 16.7812L31.4479 18.6666L29.5625 20.552L31.4479 22.4374Z" fill="#EB3F57"/>
<path d="M57.3333 42.6667H60V45.3334H57.3333V42.6667Z" fill="#EB3F57"/>
<path d="M62.6667 42.6667H68V45.3334H62.6667V42.6667Z" fill="#EB3F57"/>
<path d="M57.3333 46.6667H68V49.3334H57.3333V46.6667Z" fill="#EB3F57"/>
<path d="M12 10.6667H20V13.3334H12V10.6667Z" fill="#EB3F57"/>
<path d="M12 14.6667H20V17.3334H12V14.6667Z" fill="#EB3F57"/>
</g>
<defs>
<clipPath id="clip0_43_46">
<rect width="80" height="80" fill="white"/>
</clipPath>
</defs>
</svg>
