<svg width="104" height="104" viewBox="0 0 104 104" fill="none" xmlns="http://www.w3.org/2000/svg">
<path d="M95.875 3.25H8.125C6.83326 3.25386 5.59552 3.76871 4.68212 4.68212C3.76871 5.59552 3.25386 6.83326 3.25 8.125V68.25C3.25386 69.5417 3.76871 70.7795 4.68212 71.6929C5.59552 72.6063 6.83326 73.1211 8.125 73.125H25.0413C25.1034 73.3366 25.0801 73.5642 24.9762 73.7588L20.8813 80.5675C20.3216 81.5022 20.0911 82.5973 20.2266 83.6783C20.3621 84.7592 20.8557 85.7636 21.6287 86.5312L27.2188 92.1212C27.9864 92.8943 28.9908 93.3879 30.0717 93.5234C31.1527 93.6589 32.2479 93.4284 33.1825 92.8688L39.9912 88.7738C40.1213 88.7062 40.2653 88.6696 40.4118 88.6667C40.5584 88.6639 40.7037 88.695 40.8363 88.7575C40.9684 88.8084 41.087 88.8892 41.1829 88.9935C41.2787 89.0977 41.3492 89.2228 41.3887 89.3587L43.3062 97.0612C43.5706 98.1152 44.1796 99.0505 45.0363 99.7188C45.893 100.387 46.9484 100.75 48.035 100.75H55.965C57.0516 100.75 58.107 100.387 58.9637 99.7188C59.8205 99.0505 60.4294 98.1152 60.6937 97.0612L62.6112 89.3587C62.6542 89.2175 62.7294 89.0882 62.831 88.981C62.9325 88.8739 63.0575 88.7918 63.1963 88.7412C63.3255 88.6854 63.4656 88.6594 63.6062 88.665C63.7468 88.6706 63.8844 88.7078 64.0088 88.7738L70.8175 92.8688C71.7532 93.4248 72.8475 93.6532 73.9276 93.5178C75.0076 93.3824 76.0117 92.891 76.7812 92.1212L82.3712 86.5312C83.1443 85.7636 83.6379 84.7592 83.7734 83.6783C83.9089 82.5973 83.6784 81.5022 83.1188 80.5675L79.0238 73.7588C78.9278 73.5618 78.9048 73.3373 78.9587 73.125H95.875C97.1667 73.1211 98.4045 72.6063 99.3179 71.6929C100.231 70.7795 100.746 69.5417 100.75 68.25V8.125C100.746 6.83326 100.231 5.59552 99.3179 4.68212C98.4045 3.76871 97.1667 3.25386 95.875 3.25ZM87.75 65.715C87.7497 66.0779 87.628 66.4303 87.4041 66.716C87.1803 67.0016 86.8673 67.2042 86.515 67.2913L78.8125 69.2087C78.1791 69.3773 77.5937 69.6913 77.1029 70.1257C76.612 70.5601 76.2293 71.103 75.985 71.7113C75.7363 72.3091 75.6303 72.9567 75.6755 73.6026C75.7206 74.2485 75.9156 74.875 76.245 75.4325L80.3238 82.2412C80.5139 82.5504 80.5933 82.915 80.5491 83.2752C80.5048 83.6354 80.3394 83.9699 80.08 84.2238L74.4738 89.83C74.2199 90.0894 73.8854 90.2548 73.5252 90.2991C73.165 90.3433 72.8004 90.2639 72.4912 90.0738L65.6825 85.995C65.1191 85.6697 64.4886 85.4782 63.8395 85.4352C63.1904 85.3922 62.5401 85.4988 61.9387 85.7469C61.3373 85.995 60.801 86.3779 60.371 86.866C59.941 87.3542 59.6289 87.9346 59.4588 88.5625L57.5412 96.265C57.4542 96.6173 57.2516 96.9303 56.966 97.1541C56.6803 97.378 56.3279 97.4997 55.965 97.5H48.035C47.6721 97.4997 47.3197 97.378 47.034 97.1541C46.7484 96.9303 46.5458 96.6173 46.4588 96.265L44.5412 88.5625C44.3727 87.9291 44.0587 87.3437 43.6243 86.8529C43.1899 86.362 42.647 85.9793 42.0387 85.735C41.5231 85.523 40.9713 85.4126 40.4137 85.41C39.6744 85.4077 38.9488 85.6102 38.3175 85.995L31.5087 90.0738C31.1996 90.2639 30.835 90.3433 30.4748 90.2991C30.1146 90.2548 29.7801 90.0894 29.5263 89.83L23.92 84.2238C23.6606 83.9699 23.4952 83.6354 23.4509 83.2752C23.4067 82.915 23.4861 82.5504 23.6763 82.2412L27.755 75.4325C28.0803 74.8691 28.2718 74.2386 28.3148 73.5895C28.3578 72.9404 28.2512 72.2901 28.0031 71.6887C27.755 71.0873 27.3721 70.551 26.884 70.121C26.3958 69.691 25.8154 69.3789 25.1875 69.2087L17.485 67.2913C17.1327 67.2042 16.8197 67.0016 16.5959 66.716C16.372 66.4303 16.2503 66.0779 16.25 65.715V57.785C16.2503 57.4221 16.372 57.0697 16.5959 56.784C16.8197 56.4984 17.1327 56.2958 17.485 56.2088L25.1875 54.2912C25.8209 54.1227 26.4063 53.8087 26.8971 53.3743C27.388 52.9399 27.7707 52.397 28.015 51.7887C28.2637 51.1909 28.3697 50.5433 28.3245 49.8974C28.2794 49.2515 28.0844 48.625 27.755 48.0675L23.6763 41.2588C23.4861 40.9496 23.4067 40.585 23.4509 40.2248C23.4952 39.8646 23.6606 39.5301 23.92 39.2762L29.5263 33.67C29.7801 33.4106 30.1146 33.2452 30.4748 33.2009C30.835 33.1567 31.1996 33.2361 31.5087 33.4263L38.3175 37.505C38.8809 37.8303 39.5114 38.0218 40.1605 38.0648C40.8096 38.1078 41.4599 38.0012 42.0613 37.7531C42.6627 37.505 43.199 37.1221 43.629 36.634C44.059 36.1458 44.3711 35.5654 44.5412 34.9375L46.4588 27.235C46.5458 26.8827 46.7484 26.5697 47.034 26.3459C47.3197 26.122 47.6721 26.0003 48.035 26H55.965C56.3279 26.0003 56.6803 26.122 56.966 26.3459C57.2516 26.5697 57.4542 26.8827 57.5412 27.235L59.4588 34.9375C59.6273 35.5709 59.9413 36.1563 60.3757 36.6471C60.8101 37.138 61.353 37.5207 61.9613 37.765C62.5591 38.0137 63.2067 38.1197 63.8526 38.0745C64.4985 38.0294 65.125 37.8344 65.6825 37.505L72.4912 33.4263C72.8017 33.2404 73.1653 33.1634 73.5244 33.2076C73.8835 33.2517 74.2176 33.4145 74.4738 33.67L80.08 39.2762C80.3394 39.5301 80.5048 39.8646 80.5491 40.2248C80.5933 40.585 80.5139 40.9496 80.3238 41.2588L76.245 48.0675C75.9197 48.6309 75.7282 49.2614 75.6852 49.9105C75.6422 50.5596 75.7488 51.2099 75.9969 51.8113C76.245 52.4127 76.6279 52.949 77.116 53.379C77.6042 53.809 78.1846 54.1211 78.8125 54.2912L86.515 56.2088C86.8673 56.2958 87.1803 56.4984 87.4041 56.784C87.628 57.0697 87.7497 57.4221 87.75 57.785V65.715ZM97.5 68.25C97.5 68.681 97.3288 69.0943 97.024 69.399C96.7193 69.7038 96.306 69.875 95.875 69.875H88.6437C89.3618 69.4435 89.9561 68.8338 90.3689 68.1049C90.7818 67.376 90.9992 66.5527 91 65.715V57.785C91.0001 56.6984 90.6371 55.643 89.9688 54.7863C89.3005 53.9295 88.3652 53.3206 87.3112 53.0563L79.6087 51.1387C79.3805 51.0768 79.1835 50.9319 79.0563 50.7325C79.04 50.6837 79.0075 50.6025 78.9912 50.5537C78.9354 50.4245 78.9094 50.2844 78.915 50.1438C78.9206 50.0032 78.9578 49.8656 79.0238 49.7412L83.1188 42.9325C83.6784 41.9978 83.9089 40.9027 83.7734 39.8217C83.6379 38.7408 83.1443 37.7364 82.3712 36.9688L76.7812 31.3787C76.0136 30.6057 75.0092 30.1121 73.9283 29.9766C72.8473 29.8411 71.7522 30.0716 70.8175 30.6313L64.0088 34.7263C63.8787 34.7938 63.7347 34.8304 63.5882 34.8333C63.4416 34.8361 63.2963 34.805 63.1637 34.7425C63.0316 34.6916 62.913 34.6108 62.8171 34.5065C62.7213 34.4023 62.6508 34.2772 62.6112 34.1413L60.6937 26.4388C60.4294 25.3849 59.8205 24.4495 58.9637 23.7812C58.107 23.1129 57.0516 22.7499 55.965 22.75H48.035C46.9484 22.7499 45.893 23.1129 45.0363 23.7812C44.1796 24.4495 43.5706 25.3849 43.3062 26.4388L41.3887 34.1413C41.3458 34.2825 41.2706 34.4118 41.169 34.5189C41.0675 34.6261 40.9425 34.7082 40.8037 34.7587C40.6745 34.8146 40.5344 34.8406 40.3938 34.835C40.2532 34.8294 40.1156 34.7922 39.9912 34.7263L33.1825 30.6313C32.2468 30.0752 31.1524 29.8468 30.0724 29.9822C28.9924 30.1176 27.9883 30.609 27.2188 31.3787L21.6287 36.9688C20.8557 37.7364 20.3621 38.7408 20.2266 39.8217C20.0911 40.9027 20.3216 41.9978 20.8813 42.9325L24.9762 49.7412C25.0438 49.8713 25.0804 50.0153 25.0833 50.1618C25.0861 50.3084 25.055 50.4537 24.9925 50.5863C24.9416 50.7184 24.8608 50.837 24.7565 50.9329C24.6523 51.0287 24.5272 51.0992 24.3913 51.1387L16.6888 53.0563C15.6349 53.3206 14.6995 53.9295 14.0312 54.7863C13.3629 55.643 12.9999 56.6984 13 57.785V65.715C13.0008 66.5527 13.2182 67.376 13.6311 68.1049C14.0439 68.8338 14.6382 69.4435 15.3562 69.875H8.125C7.69402 69.875 7.2807 69.7038 6.97595 69.399C6.67121 69.0943 6.5 68.681 6.5 68.25V19.5H97.5V68.25ZM97.5 16.25H6.5V8.125C6.5 7.69402 6.67121 7.2807 6.97595 6.97595C7.2807 6.67121 7.69402 6.5 8.125 6.5H95.875C96.306 6.5 96.7193 6.67121 97.024 6.97595C97.3288 7.2807 97.5 7.69402 97.5 8.125V16.25Z" fill="white"/>
<path d="M9.75 9.75H13V13H9.75V9.75Z" fill="#EB3F57"/>
<path d="M16.25 9.75H19.5V13H16.25V9.75Z" fill="#EB3F57"/>
<path d="M22.75 9.75H26V13H22.75V9.75Z" fill="#EB3F57"/>
<path d="M52 42.25C48.1433 42.25 44.3731 43.3937 41.1664 45.5363C37.9596 47.679 35.4603 50.7245 33.9843 54.2877C32.5084 57.8508 32.1223 61.7716 32.8747 65.5543C33.6271 69.3369 35.4843 72.8115 38.2114 75.5386C40.9385 78.2657 44.4131 80.1229 48.1957 80.8753C51.9784 81.6277 55.8992 81.2416 59.4623 79.7657C63.0255 78.2897 66.071 75.7904 68.2136 72.5836C70.3563 69.3769 71.5 65.6067 71.5 61.75C71.4944 56.58 69.4381 51.6233 65.7824 47.9676C62.1266 44.3118 57.17 42.2556 52 42.25ZM52 78C48.786 78 45.6443 77.047 42.972 75.2614C40.2997 73.4758 38.2169 70.9379 36.9869 67.9686C35.757 64.9993 35.4352 61.732 36.0622 58.5798C36.6892 55.4276 38.2369 52.5321 40.5095 50.2595C42.7821 47.9869 45.6776 46.4392 48.8298 45.8122C51.982 45.1852 55.2493 45.507 58.2186 46.737C61.1879 47.9669 63.7258 50.0497 65.5114 52.722C67.2969 55.3943 68.25 58.5361 68.25 61.75C68.2453 66.0583 66.5317 70.1888 63.4853 73.2353C60.4388 76.2817 56.3083 77.9953 52 78Z" fill="#EB3F57"/>
<path d="M50.375 60.125H53.625V63.375H50.375V60.125Z" fill="#EB3F57"/>
<path d="M56.875 60.125H60.125V63.375H56.875V60.125Z" fill="white"/>
<path d="M43.875 60.125H47.125V63.375H43.875V60.125Z" fill="white"/>
</svg>
