<svg width="108" height="108" viewBox="0 0 108 108" fill="none" xmlns="http://www.w3.org/2000/svg">
<path d="M98.4496 22.766C98.3759 22.5118 98.2353 22.2821 98.0423 22.101C97.8493 21.9199 97.6111 21.794 97.3527 21.7366L88.3035 19.6922L86.2591 10.643C86.201 10.3853 86.0748 10.1479 85.8937 9.95564C85.7125 9.76335 85.4831 9.62322 85.2293 9.54986C84.9755 9.4765 84.7067 9.47261 84.4509 9.53859C84.1951 9.60458 83.9617 9.73801 83.7751 9.92497L73.3674 20.3343C64.5603 15.0199 54.1126 13.1128 43.9959 14.9731C33.8792 16.8333 24.7932 22.3322 18.4527 30.432C12.1122 38.5317 8.95566 48.6721 9.57879 58.9396C10.2019 69.207 14.5616 78.8913 21.8351 86.1648C29.1087 93.4383 38.7929 97.798 49.0604 98.4212C59.3278 99.0443 69.4682 95.8877 77.568 89.5472C85.6677 83.2067 91.1666 74.1208 93.0269 64.0041C94.8871 53.8873 92.9801 43.4396 87.6656 34.6325L98.0775 24.2206C98.2639 24.0335 98.3967 23.7999 98.4621 23.5441C98.5275 23.2883 98.5232 23.0196 98.4496 22.766ZM90.7664 56.3937C90.7652 65.014 87.9193 73.3929 82.6702 80.2308C77.4211 87.0687 70.0621 91.9832 61.7349 94.212C53.4077 96.4407 44.5778 95.8592 36.6148 92.5576C28.6518 89.256 22.0009 83.4188 17.6939 75.9516C13.3869 68.4844 11.6644 59.8046 12.7938 51.2586C13.9231 42.7126 17.8411 34.7781 23.94 28.686C30.0388 22.5939 37.9777 18.6848 46.5249 17.565C55.0722 16.4452 63.7501 18.1773 71.2125 22.4926L66.4327 27.2725C66.3916 27.3192 66.3535 27.3685 66.3188 27.4201C59.417 23.9064 51.4884 22.9696 43.9578 24.7782C36.4273 26.5867 29.7888 31.022 25.2355 37.2867C20.6822 43.5515 18.5127 51.2349 19.1171 58.956C19.7214 66.677 23.0599 73.9293 28.5325 79.4094C34.005 84.8894 41.2528 88.2377 48.973 88.8526C56.6933 89.4674 64.3796 87.3084 70.6506 82.7637C76.9215 78.2189 81.3658 71.5864 83.1846 64.0583C85.0034 56.5303 84.0774 48.6003 80.5731 41.6938C80.6273 41.6555 80.6789 41.6135 80.7275 41.5681L85.5073 36.7883C88.9591 42.7451 90.7735 49.509 90.7664 56.3937ZM77.069 41.4475C80.6952 47.6378 81.9413 54.9373 80.5741 61.98C79.2069 69.0227 75.3202 75.3259 69.6412 79.7098C63.9623 84.0937 56.8805 86.2579 49.7211 85.7974C42.5617 85.3369 35.8155 82.2832 30.745 77.2079C25.6745 72.1325 22.6273 65.3834 22.1737 58.2235C21.7201 51.0637 23.8911 43.9839 28.2805 38.3092C32.6699 32.6345 38.9767 28.7538 46.0208 27.3934C53.0648 26.033 60.3631 27.2862 66.5499 30.9183L68.105 37.8067L66.6132 39.2984C62.1646 35.392 56.3712 33.3687 50.4579 33.6563C44.5446 33.9439 38.9749 36.5198 34.9264 40.8395C30.8779 45.1593 28.6679 50.8841 28.7638 56.8036C28.8597 62.7232 31.2539 68.3734 35.4402 72.5597C39.6265 76.746 45.2768 79.1402 51.1963 79.2361C57.1159 79.332 62.8407 77.1221 67.1604 73.0736C71.4801 69.0251 74.0561 63.4554 74.3437 57.542C74.6313 51.6287 72.608 45.8353 68.7015 41.3867L70.1933 39.895L77.069 41.4475ZM57.9555 56.3937C57.9607 57.8052 57.4972 59.1785 56.6376 60.2981C55.778 61.4177 54.5711 62.2202 53.2061 62.5798C51.8412 62.9394 50.3955 62.8356 49.0959 62.2848C47.7962 61.734 46.7163 60.7673 46.0254 59.5364C45.3345 58.3055 45.0718 56.8801 45.2786 55.4838C45.4853 54.0875 46.1498 52.7994 47.1677 51.8215C48.1856 50.8436 49.4994 50.2313 50.9028 50.0807C52.3063 49.9302 53.72 50.2498 54.9222 50.9894L50.5617 55.3499C50.4207 55.4862 50.3083 55.6491 50.2309 55.8293C50.1536 56.0095 50.1129 56.2032 50.1112 56.3993C50.1096 56.5953 50.147 56.7898 50.2212 56.9712C50.2955 57.1527 50.4052 57.3175 50.5439 57.4561C50.6825 57.5947 50.8474 57.7043 51.0289 57.7785C51.2104 57.8527 51.4048 57.8901 51.6009 57.8883C51.7969 57.8866 51.9907 57.8458 52.1708 57.7684C52.3509 57.691 52.5138 57.5784 52.65 57.4374L57.0105 53.0769C57.6279 54.0731 57.9551 55.2217 57.9555 56.3937ZM57.0476 48.864C55.1452 47.4861 52.7935 46.8755 50.461 47.154C48.1286 47.4325 45.9867 48.5796 44.4623 50.3668C42.9378 52.154 42.1427 54.4499 42.2354 56.7971C42.3281 59.1443 43.3019 61.3703 44.9625 63.0317C46.6232 64.693 48.8489 65.6676 51.196 65.7613C53.5432 65.855 55.8395 65.0608 57.6272 63.5371C59.415 62.0133 60.563 59.8719 60.8424 57.5396C61.1219 55.2073 60.5123 52.8553 59.1351 50.9523L66.609 43.4784C69.9578 47.3689 71.6681 52.4061 71.3804 57.5314C71.0927 62.6566 68.8295 67.4708 65.0664 70.9622C61.3032 74.4535 56.3332 76.3502 51.2008 76.2536C46.0684 76.1569 41.1733 74.0745 37.5442 70.444C33.9151 66.8135 31.8347 61.9175 31.7402 56.7851C31.6456 51.6526 33.5443 46.6834 37.0372 42.9216C40.53 39.1599 45.3451 36.8986 50.4705 36.613C55.5959 36.3274 60.6324 38.0397 64.5216 41.3901L57.0476 48.864ZM84.7598 33.3593L79.218 38.9002L78.3869 38.7129L78.3548 38.7053L70.9594 37.0406L69.0955 28.7862L83.9725 13.9066L85.6322 21.2523C85.6937 21.5246 85.8312 21.7739 86.0286 21.9714C86.226 22.1688 86.4753 22.3062 86.7476 22.3678L94.0933 24.0274L84.7598 33.3593Z" fill="#EB3F57"/>
</svg>
