<svg width="95" height="95" viewBox="0 0 95 95" fill="none" xmlns="http://www.w3.org/2000/svg">
<g clip-path="url(#clip0_43_696)">
<path d="M90.2506 0H4.75057C2.04425 0.0861113 -0.0811558 2.34754 0.00057112 5.054V89.946C-0.0811558 92.6525 2.04425 94.9139 4.75057 95H90.2506C92.9569 94.9139 95.0823 92.6525 95.0006 89.946V5.054C95.0823 2.34754 92.9569 0.0861113 90.2506 0ZM4.75057 3.16667H90.2506C91.1989 3.2698 91.8972 4.10223 91.8339 5.054V12.6667H3.16724V5.054C3.10394 4.10223 3.80229 3.2698 4.75057 3.16667ZM90.2506 91.8333H4.75057C3.80229 91.7302 3.10394 90.8978 3.16724 89.946V15.8333H91.8339V89.946C91.9091 90.9016 91.2047 91.7413 90.2506 91.8333Z" fill="white"/>
<path d="M7.91671 9.49992C8.79116 9.49992 9.50004 8.79104 9.50004 7.91659C9.50004 7.04214 8.79116 6.33325 7.91671 6.33325C7.04226 6.33325 6.33337 7.04214 6.33337 7.91659C6.33337 8.79104 7.04226 9.49992 7.91671 9.49992Z" fill="#EB3F57"/>
<path d="M14.25 9.49992C15.1244 9.49992 15.8333 8.79104 15.8333 7.91659C15.8333 7.04214 15.1244 6.33325 14.25 6.33325C13.3755 6.33325 12.6666 7.04214 12.6666 7.91659C12.6666 8.79104 13.3755 9.49992 14.25 9.49992Z" fill="#EB3F57"/>
<path d="M20.5833 9.49992C21.4578 9.49992 22.1667 8.79104 22.1667 7.91659C22.1667 7.04214 21.4578 6.33325 20.5833 6.33325C19.7089 6.33325 19 7.04214 19 7.91659C19 8.79104 19.7089 9.49992 20.5833 9.49992Z" fill="#EB3F57"/>
<path d="M76 9.49992H87.0833C87.9578 9.49992 88.6666 8.79104 88.6666 7.91659C88.6666 7.04214 87.9578 6.33325 87.0833 6.33325H76C75.1255 6.33325 74.4166 7.04214 74.4166 7.91659C74.4166 8.79104 75.1255 9.49992 76 9.49992Z" fill="#EB3F57"/>
<mask id="path-6-inside-1_43_696" fill="white">
<path d="M28.5 36.4167C30.2489 36.4167 31.6667 34.9989 31.6667 33.25V22.1667C31.6667 20.4178 30.2489 19 28.5 19H12.6667C10.9178 19 9.5 20.4178 9.5 22.1667V33.25C9.5 34.9989 10.9178 36.4167 12.6667 36.4167H28.5ZM12.6667 22.1667H28.5V33.25H12.6667V22.1667Z"/>
</mask>
<path d="M28.5 36.4167C30.2489 36.4167 31.6667 34.9989 31.6667 33.25V22.1667C31.6667 20.4178 30.2489 19 28.5 19H12.6667C10.9178 19 9.5 20.4178 9.5 22.1667V33.25C9.5 34.9989 10.9178 36.4167 12.6667 36.4167H28.5ZM12.6667 22.1667H28.5V33.25H12.6667V22.1667Z" fill="white"/>
<path d="M12.6667 22.1667V13.6333H4.13333V22.1667H12.6667ZM28.5 22.1667H37.0333V13.6333H28.5V22.1667ZM28.5 33.25V41.7833H37.0333V33.25H28.5ZM12.6667 33.25H4.13333V41.7833H12.6667V33.25ZM28.5 44.95C34.9617 44.95 40.2 39.7117 40.2 33.25H23.1333C23.1333 30.2861 25.5361 27.8833 28.5 27.8833V44.95ZM40.2 33.25V22.1667H23.1333V33.25H40.2ZM40.2 22.1667C40.2 15.7049 34.9617 10.4667 28.5 10.4667V27.5333C25.5361 27.5333 23.1333 25.1306 23.1333 22.1667H40.2ZM28.5 10.4667H12.6667V27.5333H28.5V10.4667ZM12.6667 10.4667C6.20494 10.4667 0.966666 15.7049 0.966666 22.1667H18.0333C18.0333 25.1306 15.6306 27.5333 12.6667 27.5333V10.4667ZM0.966666 22.1667V33.25H18.0333V22.1667H0.966666ZM0.966666 33.25C0.966666 39.7117 6.20494 44.95 12.6667 44.95V27.8833C15.6306 27.8833 18.0333 30.2861 18.0333 33.25H0.966666ZM12.6667 44.95H28.5V27.8833H12.6667V44.95ZM12.6667 30.7H28.5V13.6333H12.6667V30.7ZM19.9667 22.1667V33.25H37.0333V22.1667H19.9667ZM28.5 24.7167H12.6667V41.7833H28.5V24.7167ZM21.2 33.25V22.1667H4.13333V33.25H21.2Z" fill="#EB3F57" mask="url(#path-6-inside-1_43_696)"/>
<mask id="path-8-inside-2_43_696" fill="white">
<path d="M39.5833 36.4167H55.4166C57.1655 36.4167 58.5833 34.9989 58.5833 33.25V22.1667C58.5833 20.4178 57.1655 19 55.4166 19H39.5833C37.8344 19 36.4166 20.4178 36.4166 22.1667V33.25C36.4166 34.9989 37.8344 36.4167 39.5833 36.4167ZM39.5833 22.1667H55.4166V33.25H39.5833V22.1667Z"/>
</mask>
<path d="M39.5833 36.4167H55.4166C57.1655 36.4167 58.5833 34.9989 58.5833 33.25V22.1667C58.5833 20.4178 57.1655 19 55.4166 19H39.5833C37.8344 19 36.4166 20.4178 36.4166 22.1667V33.25C36.4166 34.9989 37.8344 36.4167 39.5833 36.4167ZM39.5833 22.1667H55.4166V33.25H39.5833V22.1667Z" fill="white"/>
<path d="M39.5833 22.1667V13.6333H31.05V22.1667H39.5833ZM55.4166 22.1667H63.95V13.6333H55.4166V22.1667ZM55.4166 33.25V41.7833H63.95V33.25H55.4166ZM39.5833 33.25H31.05V41.7833H39.5833V33.25ZM39.5833 44.95H55.4166V27.8833H39.5833V44.95ZM55.4166 44.95C61.8784 44.95 67.1166 39.7117 67.1166 33.25H50.05C50.05 30.2861 52.4527 27.8833 55.4166 27.8833V44.95ZM67.1166 33.25V22.1667H50.05V33.25H67.1166ZM67.1166 22.1667C67.1166 15.7049 61.8784 10.4667 55.4166 10.4667V27.5333C52.4527 27.5333 50.05 25.1306 50.05 22.1667H67.1166ZM55.4166 10.4667H39.5833V27.5333H55.4166V10.4667ZM39.5833 10.4667C33.1216 10.4667 27.8833 15.7049 27.8833 22.1667H44.95C44.95 25.1306 42.5472 27.5333 39.5833 27.5333V10.4667ZM27.8833 22.1667V33.25H44.95V22.1667H27.8833ZM27.8833 33.25C27.8833 39.7117 33.1216 44.95 39.5833 44.95V27.8833C42.5472 27.8833 44.95 30.2861 44.95 33.25H27.8833ZM39.5833 30.7H55.4166V13.6333H39.5833V30.7ZM46.8833 22.1667V33.25H63.95V22.1667H46.8833ZM55.4166 24.7167H39.5833V41.7833H55.4166V24.7167ZM48.1166 33.25V22.1667H31.05V33.25H48.1166Z" fill="#EB3F57" mask="url(#path-8-inside-2_43_696)"/>
<mask id="path-10-inside-3_43_696" fill="white">
<path d="M82.3333 19H66.4999C64.751 19 63.3333 20.4178 63.3333 22.1667V33.25C63.3333 34.9989 64.751 36.4167 66.4999 36.4167H82.3333C84.0822 36.4167 85.4999 34.9989 85.4999 33.25V22.1667C85.4999 20.4178 84.0822 19 82.3333 19ZM66.4999 33.25V22.1667H82.3333V33.25H66.4999Z"/>
</mask>
<path d="M82.3333 19H66.4999C64.751 19 63.3333 20.4178 63.3333 22.1667V33.25C63.3333 34.9989 64.751 36.4167 66.4999 36.4167H82.3333C84.0822 36.4167 85.4999 34.9989 85.4999 33.25V22.1667C85.4999 20.4178 84.0822 19 82.3333 19ZM66.4999 33.25V22.1667H82.3333V33.25H66.4999Z" fill="#EB3F57"/>
<path d="M66.4999 33.25H57.9666V41.7833H66.4999V33.25ZM66.4999 22.1667V13.6333H57.9666V22.1667H66.4999ZM82.3333 22.1667H90.8666V13.6333H82.3333V22.1667ZM82.3333 33.25V41.7833H90.8666V33.25H82.3333ZM82.3333 10.4667H66.4999V27.5333H82.3333V10.4667ZM66.4999 10.4667C60.0382 10.4667 54.7999 15.7049 54.7999 22.1667H71.8666C71.8666 25.1306 69.4638 27.5333 66.4999 27.5333V10.4667ZM54.7999 22.1667V33.25H71.8666V22.1667H54.7999ZM54.7999 33.25C54.7999 39.7117 60.0382 44.95 66.4999 44.95V27.8833C69.4638 27.8833 71.8666 30.2861 71.8666 33.25H54.7999ZM66.4999 44.95H82.3333V27.8833H66.4999V44.95ZM82.3333 44.95C88.795 44.95 94.0332 39.7117 94.0332 33.25H76.9666C76.9666 30.2861 79.3693 27.8833 82.3333 27.8833V44.95ZM94.0332 33.25V22.1667H76.9666V33.25H94.0332ZM94.0332 22.1667C94.0332 15.7049 88.795 10.4667 82.3333 10.4667V27.5333C79.3693 27.5333 76.9666 25.1306 76.9666 22.1667H94.0332ZM75.0333 33.25V22.1667H57.9666V33.25H75.0333ZM66.4999 30.7H82.3333V13.6333H66.4999V30.7ZM73.7999 22.1667V33.25H90.8666V22.1667H73.7999ZM82.3333 24.7167H66.4999V41.7833H82.3333V24.7167Z" fill="#EB3F57" mask="url(#path-10-inside-3_43_696)"/>
<path d="M28.5 39.5835H12.6667C11.7923 39.5835 11.0834 40.2924 11.0834 41.1668C11.0834 42.0413 11.7923 42.7502 12.6667 42.7502H28.5C29.3745 42.7502 30.0834 42.0413 30.0834 41.1668C30.0834 40.2924 29.3745 39.5835 28.5 39.5835Z" fill="white"/>
<path d="M28.5 45.9167H12.6667C11.7923 45.9167 11.0834 46.6256 11.0834 47.5001C11.0834 48.3745 11.7923 49.0834 12.6667 49.0834H28.5C29.3745 49.0834 30.0834 48.3745 30.0834 47.5001C30.0834 46.6256 29.3745 45.9167 28.5 45.9167Z" fill="white"/>
<path d="M55.4167 39.5835H39.5833C38.7089 39.5835 38 40.2924 38 41.1668C38 42.0413 38.7089 42.7502 39.5833 42.7502H55.4167C56.2911 42.7502 57 42.0413 57 41.1668C57 40.2924 56.2911 39.5835 55.4167 39.5835Z" fill="white"/>
<path d="M55.4167 45.9167H39.5833C38.7089 45.9167 38 46.6256 38 47.5001C38 48.3745 38.7089 49.0834 39.5833 49.0834H55.4167C56.2911 49.0834 57 48.3745 57 47.5001C57 46.6256 56.2911 45.9167 55.4167 45.9167Z" fill="white"/>
<path d="M82.3333 39.5835H66.5C65.6255 39.5835 64.9166 40.2924 64.9166 41.1668C64.9166 42.0413 65.6255 42.7502 66.5 42.7502H82.3333C83.2077 42.7502 83.9166 42.0413 83.9166 41.1668C83.9166 40.2924 83.2077 39.5835 82.3333 39.5835Z" fill="white"/>
<path d="M72.7257 61.9953C72.702 61.9699 72.694 61.9367 72.6703 61.9129C72.6282 61.8814 72.5843 61.8523 72.5389 61.8258C58.2875 49.0587 36.7126 49.0587 22.4612 61.8258C22.4157 61.8523 22.3719 61.8814 22.3298 61.9129C22.306 61.9367 22.2981 61.9699 22.2744 61.9953C15.184 68.4135 11.1221 77.5194 11.0834 87.0832C11.0834 87.9576 11.7923 88.6665 12.6667 88.6665H82.3334C83.2078 88.6665 83.9167 87.9576 83.9167 87.0832C83.878 77.5194 79.8161 68.4135 72.7257 61.9953ZM51.9587 85.4998H43.0414C43.7023 83.6028 45.4912 82.3317 47.5 82.3317C49.5089 82.3317 51.2978 83.6028 51.9587 85.4998ZM55.2584 85.4998C54.8588 83.5949 53.7715 81.9039 52.2041 80.7498L60.0195 64.0013C60.2691 63.4873 60.2224 62.8786 59.8973 62.4087C59.5721 61.9388 59.019 61.6805 58.4499 61.733C57.8809 61.7854 57.3842 62.1404 57.1505 62.6618L49.3367 79.404C48.7361 79.2523 48.1195 79.1726 47.5 79.1665C43.7395 79.1713 40.4992 81.8163 39.7417 85.4998H14.2912C14.7284 77.855 17.9959 70.6466 23.4571 65.2791L27.3806 69.2026C28.0019 69.8026 28.9894 69.7941 29.6002 69.1833C30.2109 68.5726 30.2195 67.585 29.6195 66.9638L25.8084 63.1495C31.5041 58.4851 38.5611 55.7973 45.9167 55.4909V61.7498C45.9167 62.6243 46.6256 63.3332 47.5 63.3332C48.3745 63.3332 49.0834 62.6243 49.0834 61.7498V55.4909C56.439 55.7973 63.4959 58.4851 69.1917 63.1495L65.3775 66.9638C64.9659 67.3613 64.8008 67.95 64.9457 68.5036C65.0906 69.0571 65.5229 69.4895 66.0765 69.6344C66.6301 69.7793 67.2188 69.6142 67.6163 69.2026L71.5398 65.2791C77.0022 70.6461 80.2708 77.8545 80.7089 85.4998H55.2584Z" fill="#EB3F57"/>
<path d="M82.3333 45.9167H66.5C65.6255 45.9167 64.9166 46.6256 64.9166 47.5001C64.9166 48.3745 65.6255 49.0834 66.5 49.0834H82.3333C83.2077 49.0834 83.9166 48.3745 83.9166 47.5001C83.9166 46.6256 83.2077 45.9167 82.3333 45.9167Z" fill="white"/>
</g>
<defs>
<clipPath id="clip0_43_696">
<rect width="95" height="95" fill="white"/>
</clipPath>
</defs>
</svg>
