<svg width="96" height="96" viewBox="0 0 96 96" fill="none" xmlns="http://www.w3.org/2000/svg">
<g clip-path="url(#clip0_43_714)">
<path d="M54.1611 25.121C55.5071 25.121 56.3996 23.7437 55.8936 22.53C55.5579 21.7104 54.6741 21.2317 53.7956 21.4087C52.8941 21.5915 52.2861 22.3751 52.2861 23.2462C52.2861 24.2492 53.0972 25.121 54.1611 25.121Z" fill="white"/>
<path d="M48 54.0505C57.3707 54.0505 64.9941 46.4271 64.9941 37.0564C64.9941 33.2258 63.6824 29.4689 61.3007 26.4777C60.6559 25.6675 59.476 25.5332 58.666 26.1786C57.8558 26.8236 57.7219 28.0032 58.3669 28.8134C60.2492 31.1774 61.2441 34.0277 61.2441 37.0564C61.2441 44.3592 55.3028 50.3005 48 50.3005C40.6973 50.3005 34.7562 44.3592 34.7562 37.0564C34.7562 30.0173 40.2563 24.2084 47.2776 23.8317C47.6654 23.8109 48.0194 23.6736 48.3074 23.4557C49.7744 22.3459 48.9207 19.9904 47.0768 20.0871C38.0652 20.5705 31.0062 28.0242 31.0062 37.0564C31.006 46.4269 38.6295 54.0505 48 54.0505Z" fill="#EB3F57"/>
<path d="M87.5111 13.0594H76.245C75.6703 12.2151 75.312 12.006 72.9448 9.5955C70.4136 7.06462 66.2947 7.06462 63.7635 9.5955L60.8975 12.4616C59.4144 11.6822 57.8666 11.0402 56.2706 10.5428V6.49219C56.2708 2.91244 53.3585 0 49.7786 0H46.2212C42.6414 0 39.729 2.91244 39.729 6.49219V10.5429C38.1334 11.0404 36.5852 11.6826 35.1022 12.462L32.2361 9.59569C29.7049 7.06444 25.5862 7.06444 23.0548 9.59569C20.7272 11.9661 20.3304 12.2137 19.755 13.0596H8.48887C3.92174 13.0596 0.206055 16.7751 0.206055 21.3424V65.2976C0.206055 69.8516 3.90862 73.5804 8.48868 73.5804H40.9772L38.5187 82.4066H32.8837C29.4967 82.4066 26.7412 85.1621 26.7412 88.5493V92.25H19.8585C18.8229 92.25 17.9835 93.0896 17.9835 94.125C17.9835 95.1604 18.8229 96 19.8585 96H76.1415C77.1769 96 78.0165 95.1604 78.0165 94.125C78.0165 93.0896 77.1769 92.25 76.1415 92.25H69.2587V88.5491C69.2587 85.1621 66.5032 82.4064 63.1162 82.4064H57.4811L55.0226 73.5803H87.5113C92.0784 73.5803 95.7941 69.8648 95.7941 65.2974C95.7941 62.9657 95.7941 22.8889 95.7941 21.3422C95.7939 16.7751 92.0784 13.0594 87.5111 13.0594ZM87.5111 16.8094C90.0105 16.8094 92.0439 18.8428 92.0439 21.3422V57.0769H77.3413C77.2579 55.4989 76.6084 53.9681 75.4607 52.8203L72.5945 49.9543C73.3742 48.4712 74.0162 46.9234 74.5136 45.3274C78.6107 45.3171 78.6555 45.3521 79.2272 45.2938C82.4968 44.9608 85.0565 42.1914 85.0565 38.8352V35.2777C85.0565 31.6978 82.1443 28.7856 78.5644 28.7856H74.5136C74.0162 27.1896 73.374 25.6417 72.5945 24.1586L75.4607 21.2927C76.704 20.0494 77.339 18.4213 77.364 16.8094H87.5111ZM23.1909 14.763L25.7064 12.2473C26.7757 11.1782 28.5154 11.1782 29.5845 12.2473L33.4536 16.1166C34.0601 16.7226 35.0008 16.8403 35.7382 16.4019C37.716 15.2252 39.8449 14.3422 42.066 13.7775C42.8972 13.5664 43.4792 12.8181 43.4792 11.9604V6.49219C43.4792 4.98019 44.7094 3.75 46.2214 3.75H49.7788C51.2908 3.75 52.521 4.98019 52.521 6.49219V11.9604C52.521 12.8181 53.103 13.5664 53.9342 13.7775C56.1553 14.3421 58.2842 15.2252 60.2619 16.4019C60.9988 16.8405 61.9397 16.7229 62.5466 16.1166L66.4155 12.2473C67.4846 11.1786 69.2244 11.1782 70.2937 12.2473C72.8229 14.8605 73.3406 14.9902 73.5662 16.2052C73.7317 17.1146 73.4353 18.0144 72.8092 18.6409L68.9402 22.5099C68.3336 23.1165 68.216 24.0574 68.6548 24.7948C69.6845 26.5252 70.4893 28.3714 71.0526 30.294C71.133 30.5687 71.2085 30.8449 71.2792 31.1226C71.4904 31.9538 72.2387 32.5356 73.0963 32.5356H78.5645C80.0765 32.5356 81.3067 33.7657 81.3067 35.2777V38.8352C81.3067 40.3472 80.0765 41.5774 78.5645 41.5774H73.0963C72.2387 41.5774 71.4904 42.1594 71.2792 42.9906C70.7147 45.2117 69.8316 47.3406 68.6548 49.3183C68.6274 49.3644 68.6021 49.4113 68.579 49.4587C68.2327 50.1718 68.3715 51.0341 68.9404 51.603C72.3795 55.2649 73.409 55.5306 73.5926 57.0769H22.4077C22.4784 56.4812 22.746 55.9166 23.1907 55.4719L27.0598 51.6028C27.6664 50.9963 27.7839 50.0554 27.3454 49.3181C26.1682 47.34 25.2853 45.2111 24.7211 42.9904C24.51 42.159 23.7615 41.5772 22.9039 41.5772H17.4356C15.9236 41.5772 14.6934 40.347 14.6934 38.835V35.2776C14.6934 33.7656 15.9236 32.5354 17.4356 32.5354H22.9041C23.7617 32.5354 24.51 31.9534 24.7213 31.1222C25.2859 28.9009 26.1686 26.7722 27.3456 24.7946C27.7824 24.0604 27.6694 23.1191 27.06 22.5098C23.2669 18.6711 23.1412 18.6737 22.8289 18.1922C22.1317 17.1201 22.2707 15.6829 23.1909 14.763ZM8.48887 16.8094H18.636C18.6615 18.4414 19.3117 20.0651 20.5393 21.2927L23.4054 24.1586C22.626 25.6417 21.9838 27.1899 21.4864 28.7856H17.4356C13.8559 28.7856 10.9434 31.6978 10.9434 35.2777V38.8352C10.9434 42.4187 13.8594 45.3274 17.4356 45.3274H21.4864C21.9838 46.923 22.6258 48.4712 23.4054 49.9543L20.5393 52.8203C19.3914 53.9681 18.7421 55.4989 18.6587 57.0769H3.95605V21.3422C3.95605 18.8428 5.98949 16.8094 8.48887 16.8094ZM65.5087 88.5491V92.25H30.4912V88.5491C30.4912 87.2299 31.5645 86.1564 32.8837 86.1564H63.1162C64.4355 86.1564 65.5087 87.2299 65.5087 88.5491ZM53.5884 82.4064H42.4114L44.8699 73.5803H51.1297L53.5884 82.4064ZM92.0439 65.2974C92.0439 67.7968 90.0105 69.8303 87.5111 69.8303C84.7125 69.8303 11.0998 69.8303 8.48868 69.8303C5.98199 69.8303 3.95587 67.7899 3.95587 65.2974V60.8269H92.0437L92.0439 65.2974Z" fill="white"/>
</g>
<defs>
<clipPath id="clip0_43_714">
<rect width="96" height="96" fill="white"/>
</clipPath>
</defs>
</svg>
